<svg width="21" height="20" viewBox="0 0 21 20" fill="none" xmlns="http://www.w3.org/2000/svg">
<path d="M15.4295 20C14.3724 20 13.259 19.7488 12.1083 19.2651C10.9856 18.7907 9.85359 18.1395 8.74963 17.3488C7.65502 16.5488 6.59783 15.6558 5.59678 14.6791C4.60509 13.6837 3.70695 12.6326 2.91172 11.5535C2.10714 10.4372 1.4616 9.32093 1.00318 8.24186C0.516684 7.08837 0.273438 5.97209 0.273438 4.92093C0.273438 4.19535 0.404416 3.50698 0.657018 2.86512C0.918975 2.20465 1.33998 1.5907 1.91067 1.06047C2.63105 0.353488 3.45435 0 4.33378 0C4.69864 0 5.07287 0.0837209 5.39096 0.232558C5.75583 0.4 6.06456 0.651163 6.2891 0.986046L8.4596 4.02791C8.65607 4.29767 8.80576 4.55814 8.90867 4.8186C9.03029 5.09767 9.09579 5.37674 9.09579 5.64651C9.09579 6 8.99287 6.34419 8.7964 6.66977C8.65607 6.92093 8.44089 7.1907 8.16958 7.46047L7.5334 8.12093C7.54275 8.14884 7.55211 8.16744 7.56146 8.18605C7.67373 8.3814 7.89827 8.71628 8.32862 9.21861C8.78705 9.73954 9.21741 10.214 9.64777 10.6512C10.1997 11.1907 10.6582 11.6186 11.0885 11.9721C11.6218 12.4186 11.968 12.6419 12.1738 12.7442L12.1551 12.7907L12.838 12.1209C13.1281 11.8326 13.4087 11.6186 13.68 11.4791C14.1946 11.1628 14.8495 11.107 15.5044 11.3767C15.7476 11.4791 16.0096 11.6186 16.2903 11.814L19.3963 14.0093C19.7425 14.2419 19.9951 14.5395 20.1448 14.893C20.2851 15.2465 20.3506 15.5721 20.3506 15.8977C20.3506 16.3442 20.2477 16.7907 20.0512 17.2093C19.8547 17.6279 19.6115 17.9907 19.3028 18.3256C18.7695 18.9116 18.1894 19.3302 17.5158 19.6C16.8703 19.8605 16.1686 20 15.4295 20ZM4.33378 1.39535C3.81922 1.39535 3.34208 1.6186 2.88365 2.06512C2.4533 2.46512 2.15392 2.90233 1.9668 3.37674C1.77034 3.86047 1.67678 4.37209 1.67678 4.92093C1.67678 5.78605 1.8826 6.72558 2.29425 7.69302C2.71525 8.67907 3.30466 9.70233 4.05311 10.7256C4.80156 11.7488 5.65292 12.7442 6.58848 13.6837C7.52404 14.6047 8.53445 15.4605 9.57292 16.214C10.5833 16.9488 11.6218 17.5442 12.6509 17.9721C14.2507 18.6512 15.7476 18.8093 16.9826 18.2977C17.4597 18.1023 17.8807 17.8047 18.2643 17.3767C18.4795 17.1442 18.6479 16.893 18.7882 16.5954C18.9005 16.3628 18.9566 16.1209 18.9566 15.8791C18.9566 15.7302 18.9285 15.5814 18.8537 15.414C18.8256 15.3581 18.7695 15.2558 18.5917 15.1349L15.4857 12.9395C15.2986 12.8093 15.1302 12.7163 14.9711 12.6512C14.7653 12.5674 14.6811 12.4837 14.363 12.6791C14.1759 12.7721 14.0075 12.9116 13.8204 13.0977L13.1093 13.7953C12.7445 14.1488 12.1831 14.2326 11.7528 14.0744L11.5002 13.9628C11.1166 13.7581 10.6675 13.4419 10.1717 13.0233C9.72261 12.6419 9.23612 12.1953 8.64671 11.6186C8.18829 11.1535 7.72986 10.6605 7.25273 10.1116C6.81301 9.6 6.49492 9.16279 6.29846 8.8L6.18619 8.52093C6.13005 8.30698 6.11134 8.18605 6.11134 8.05581C6.11134 7.72093 6.23297 7.42326 6.46686 7.1907L7.16853 6.46512C7.35564 6.27907 7.49597 6.10233 7.58953 5.94419C7.66437 5.82326 7.69244 5.72093 7.69244 5.62791C7.69244 5.55349 7.66438 5.44186 7.6176 5.33023C7.55211 5.1814 7.4492 5.01395 7.31822 4.83721L5.14771 1.78605C5.05416 1.65581 4.94189 1.56279 4.80156 1.49767C4.65187 1.43256 4.49282 1.39535 4.33378 1.39535ZM12.1551 12.8L12.0054 13.4326L12.258 12.7814C12.2112 12.7721 12.1738 12.7814 12.1551 12.8Z" fill="#A9CF46"/>
</svg>
