<svg width="30" height="30" viewBox="0 0 30 30" fill="none" xmlns="http://www.w3.org/2000/svg">
<path d="M21.285 0H8.715C3.255 0 0 3.255 0 8.715V21.27C0 26.745 3.255 30 8.715 30H21.27C26.73 30 29.985 26.745 29.985 21.285V8.715C30 3.255 26.745 0 21.285 0ZM15 20.82C11.79 20.82 9.18 18.21 9.18 15C9.18 11.79 11.79 9.18 15 9.18C18.21 9.18 20.82 11.79 20.82 15C20.82 18.21 18.21 20.82 15 20.82ZM23.88 7.32C23.805 7.5 23.7 7.665 23.565 7.815C23.415 7.95 23.25 8.055 23.07 8.13C22.89 8.205 22.695 8.25 22.5 8.25C22.095 8.25 21.72 8.1 21.435 7.815C21.3 7.665 21.195 7.5 21.12 7.32C21.045 7.14 21 6.945 21 6.75C21 6.555 21.045 6.36 21.12 6.18C21.195 5.985 21.3 5.835 21.435 5.685C21.78 5.34 22.305 5.175 22.785 5.28C22.89 5.295 22.98 5.325 23.07 5.37C23.16 5.4 23.25 5.445 23.34 5.505C23.415 5.55 23.49 5.625 23.565 5.685C23.7 5.835 23.805 5.985 23.88 6.18C23.955 6.36 24 6.555 24 6.75C24 6.945 23.955 7.14 23.88 7.32Z" fill="white" fill-opacity="0.5"/>
</svg>
