<svg width="23" height="22" viewBox="0 0 23 22" fill="none" xmlns="http://www.w3.org/2000/svg">
<path d="M7.7683 17.9492H7.26694C3.25605 17.9492 1.25061 16.9521 1.25061 11.9671V6.98205C1.25061 2.99402 3.25605 1 7.26694 1H15.2887C19.2996 1 21.305 2.99402 21.305 6.98205V11.9671C21.305 15.9551 19.2996 17.9492 15.2887 17.9492H14.7873C14.4765 17.9492 14.1757 18.0987 13.9852 18.348L12.4811 20.342C11.8193 21.2193 10.7364 21.2193 10.0746 20.342L8.57047 18.348C8.41004 18.1286 8.03903 17.9492 7.7683 17.9492Z" stroke="#A9CF46" stroke-width="2" stroke-miterlimit="10" stroke-linecap="round" stroke-linejoin="round"/>
<path d="M15.2851 9.97363H15.2954" stroke="#A9CF46" stroke-width="3" stroke-linecap="round" stroke-linejoin="round"/>
<path d="M11.2733 9.97363H11.2837" stroke="#A9CF46" stroke-width="3" stroke-linecap="round" stroke-linejoin="round"/>
<path d="M7.26141 9.97363H7.2718" stroke="#A9CF46" stroke-width="3" stroke-linecap="round" stroke-linejoin="round"/>
</svg>
