<svg width="23" height="20" viewBox="0 0 23 20" fill="none" xmlns="http://www.w3.org/2000/svg">
<path d="M15.3263 20C14.8668 20 14.4074 19.9044 14.0335 19.7238L8.42414 16.9298C8.10361 16.7705 7.47323 16.7811 7.16338 16.9617L4.64188 18.3959C3.55207 19.012 2.43022 19.097 1.58615 18.5977C0.731406 18.109 0.25061 17.1104 0.25061 15.8568V5.53077C0.25061 4.56403 0.891671 3.46981 1.73574 2.99176L6.36206 0.357131C7.14202 -0.0890552 8.32798 -0.120926 9.12931 0.282767L14.7386 3.07674C15.0592 3.2361 15.6789 3.21485 15.9994 3.04487L18.5102 1.62133C19.6 1.00516 20.7219 0.920176 21.5659 1.41948C22.4207 1.90816 22.9015 2.90677 22.9015 4.16034V14.497C22.9015 15.4638 22.2604 16.558 21.4164 17.036L16.79 19.6707C16.384 19.8831 15.8498 20 15.3263 20ZM7.8365 15.2301C8.29593 15.2301 8.75535 15.3257 9.12931 15.5063L14.7386 18.3002C15.0592 18.4596 15.6789 18.4383 15.9994 18.2684L20.6257 15.6337C20.9676 15.4425 21.2988 14.8689 21.2988 14.4864V4.14972C21.2988 3.48044 21.1065 2.98113 20.7539 2.78991C20.412 2.59869 19.8778 2.67305 19.3008 3.00238L16.79 4.42593C16.0101 4.87211 14.8241 4.90398 14.0228 4.50029L8.41345 1.70631C8.09292 1.54696 7.47323 1.56821 7.1527 1.73818L2.52638 4.37281C2.18448 4.56403 1.85326 5.1377 1.85326 5.53077V15.8675C1.85326 16.5367 2.04558 17.036 2.38748 17.2273C2.72938 17.4291 3.2636 17.3441 3.85124 17.0148L6.36206 15.5913C6.77875 15.3469 7.31297 15.2301 7.8365 15.2301Z" fill="#A9CF46"/>
<path d="M7.74812 16.1118C7.31255 16.1118 6.95135 15.7506 6.95135 15.3151V1.50453C6.95135 1.06896 7.31255 0.707764 7.74812 0.707764C8.18368 0.707764 8.54488 1.06896 8.54488 1.50453V15.3151C8.54488 15.7506 8.18368 16.1118 7.74812 16.1118Z" fill="#A9CF46"/>
<path d="M15.4088 19.2987C14.9732 19.2987 14.612 18.9375 14.612 18.5019V4.28773C14.612 3.85217 14.9732 3.49097 15.4088 3.49097C15.8443 3.49097 16.2055 3.85217 16.2055 4.28773V18.5019C16.2055 18.9375 15.8443 19.2987 15.4088 19.2987Z" fill="#A9CF46"/>
</svg>
