<svg width="230" height="203" viewBox="0 0 230 203" fill="none" xmlns="http://www.w3.org/2000/svg">
<path d="M159.852 105.509H213.756C212.836 159.183 202.262 168.032 169.276 187.571C165.484 189.87 164.219 194.697 166.518 198.605C168.817 202.398 173.644 203.662 177.552 201.363C216.399 178.376 229.961 164.355 229.961 97.4634V35.5144C229.961 15.8608 213.985 0 194.447 0H159.967C139.738 0 124.452 15.2861 124.452 35.5144V69.9944C124.337 90.2226 139.624 105.509 159.852 105.509Z" fill="#ECECEC"/>
<path d="M35.5144 105.509H89.4181C88.4987 159.183 77.9248 168.032 44.9389 187.571C41.1461 189.87 39.8819 194.697 42.1805 198.605C44.4792 202.398 49.3064 203.662 53.2141 201.363C92.0616 178.376 105.624 164.355 105.624 97.4634V35.5144C105.624 15.8608 89.648 0 70.1093 0H35.6293C15.2861 0 0 15.2861 0 35.5144V69.9944C0 90.2226 15.2861 105.509 35.5144 105.509Z" fill="#ECECEC"/>
</svg>
