<svg width="39" height="27" viewBox="0 0 39 27" fill="none" xmlns="http://www.w3.org/2000/svg">
<rect width="39" height="27" fill="#A9CF46"/>
<path d="M28.4432 20.318L24.1792 16.6918C23.7381 16.2947 23.2667 16.1135 22.8865 16.1304C23.8934 14.9513 24.501 13.4223 24.501 11.7505C24.501 8.02196 21.479 5 17.7505 5C14.022 5 11 8.02196 11 11.7505C11 15.479 14.022 18.501 17.7505 18.501C19.4223 18.501 20.9513 17.8934 22.1304 16.8865C22.1124 17.2667 22.2947 17.7381 22.6918 18.1792L26.318 22.4432C26.939 23.1329 27.9527 23.1914 28.5715 22.5726C29.1903 21.9538 29.1318 20.939 28.4421 20.3191L28.4432 20.318ZM17.7505 16.2497C15.2652 16.2497 13.2502 14.2347 13.2502 11.7494C13.2502 9.26405 15.2652 7.24903 17.7505 7.24903C20.2358 7.24903 22.2508 9.26405 22.2508 11.7494C22.2508 14.2347 20.2358 16.2497 17.7505 16.2497Z" fill="#F5F5F5"/>
</svg>
