<svg width="27" height="27" viewBox="0 0 27 27" fill="none" xmlns="http://www.w3.org/2000/svg">
<path d="M15.7807 2.80522L17.9987 7.2411C18.3011 7.8586 19.1076 8.45088 19.7881 8.5643L23.8082 9.2322C26.3789 9.66066 26.9838 11.5257 25.1314 13.3656L22.0061 16.4909C21.4768 17.0202 21.187 18.0409 21.3508 18.7718L22.2455 22.6406C22.9512 25.7029 21.3256 26.8875 18.6162 25.287L14.8482 23.0565C14.1677 22.6532 13.0461 22.6532 12.353 23.0565L8.58501 25.287C5.8882 26.8875 4.24995 25.6903 4.95565 22.6406L5.85039 18.7718C6.01422 18.0409 5.72437 17.0202 5.19509 16.4909L2.06982 13.3656C0.229938 11.5257 0.822228 9.66066 3.39302 9.2322L7.41303 8.5643C8.08093 8.45088 8.88745 7.8586 9.1899 7.2411L11.4079 2.80522C12.6177 0.398259 14.5836 0.398259 15.7807 2.80522Z" stroke="white" stroke-width="1.55" stroke-linecap="round" stroke-linejoin="round"/>
</svg>
