<svg width="26" height="25" viewBox="0 0 26 25" fill="none" xmlns="http://www.w3.org/2000/svg">
<path d="M14.7807 1.80522L16.9987 6.2411C17.3011 6.8586 18.1076 7.45088 18.7881 7.5643L22.8082 8.2322C25.3789 8.66066 25.9838 10.5257 24.1314 12.3656L21.0061 15.4909C20.4768 16.0202 20.187 17.0409 20.3508 17.7718L21.2455 21.6406C21.9512 24.7029 20.3256 25.8875 17.6162 24.287L13.8482 22.0565C13.1677 21.6532 12.0461 21.6532 11.353 22.0565L7.58501 24.287C4.8882 25.8875 3.24995 24.6903 3.95565 21.6406L4.85039 17.7718C5.01422 17.0409 4.72437 16.0202 4.19509 15.4909L1.06982 12.3656C-0.770062 10.5257 -0.177772 8.66066 2.39302 8.2322L6.41303 7.5643C7.08093 7.45088 7.88745 6.8586 8.1899 6.2411L10.4079 1.80522C11.6177 -0.601741 13.5836 -0.601741 14.7807 1.80522Z" fill="#FAFF01"/>
</svg>
